<?xml version="1.0" encoding="UTF-8"?>
<svg version="1.1" xmlns="http://www.w3.org/2000/svg" width="1536" height="1023">
<path d="M0 0 C12.79658687 -0.02325923 25.59316864 -0.04098394 38.38977242 -0.05181217 C44.33293535 -0.05701144 50.27608372 -0.06405489 56.21923828 -0.07543945 C61.9639996 -0.08637403 67.70874699 -0.09229906 73.45351791 -0.09487724 C75.63574314 -0.09671256 77.81796768 -0.10029613 80.00018692 -0.10573006 C111.55539034 -0.18111841 111.55539034 -0.18111841 123.6875 3.25 C124.49711182 3.47252441 125.30672363 3.69504883 126.14086914 3.92431641 C132.41176091 5.7070261 138.24496285 7.91344994 144 11 C144.94746094 11.47824219 145.89492187 11.95648438 146.87109375 12.44921875 C167.15077924 23.34064932 180.58124777 42.44241173 187.4375 64.125 C189.32598858 70.64579018 190.16508451 76.89778713 190.23828125 83.6796875 C190.246353 84.41011261 190.25442474 85.14053772 190.26274109 85.89309692 C190.27651732 87.43782225 190.28726811 88.98257719 190.29516602 90.52734375 C190.30659051 92.074638 190.32688784 93.6218959 190.35668945 95.16894531 C190.8475509 120.73761664 182.23291603 145.02401489 164.4375 163.6875 C163.633125 164.450625 162.82875 165.21375 162 166 C161.53722656 166.50660156 161.07445312 167.01320313 160.59765625 167.53515625 C151.20996149 177.61143498 139.46278566 183.63910603 127 189 C128.47783289 193.01205637 130.38995177 196.55530721 132.5625 200.234375 C132.90970596 200.82459442 133.25691193 201.41481384 133.61463928 202.0229187 C134.73982204 203.93389591 135.86985651 205.84195314 137 207.75 C137.78344499 209.0784227 138.56656496 210.40703713 139.34936523 211.73583984 C140.8846248 214.34089251 142.42165166 216.94488726 143.96044922 219.54785156 C145.96572863 222.94041317 147.96192144 226.33823979 149.95532227 229.73779297 C154.28250595 237.11356582 158.64140244 244.47068864 162.99899292 251.82852173 C164.05096758 253.60551941 165.10182665 255.38317328 166.15258789 257.16088867 C169.07687281 262.10371115 172.00782925 267.04033256 175.02734375 271.92578125 C175.66820923 272.96774658 175.66820923 272.96774658 176.32202148 274.03076172 C177.4052725 275.78416906 178.4990174 277.53108186 179.59375 279.27734375 C181 282 181 282 181 286 C155.59 286 130.18 286 104 286 C99.5058692 275.8882057 99.5058692 275.8882057 97.73046875 270.96484375 C97.3243335 269.84634033 96.91819824 268.72783691 96.49975586 267.57543945 C96.06671143 266.37491943 95.63366699 265.17439941 95.1875 263.9375 C94.21605052 261.26210452 93.24127096 258.5879302 92.265625 255.9140625 C91.87901955 254.85397728 91.87901955 254.85397728 91.48460388 253.7724762 C88.19276451 244.76447282 84.81253806 235.78957792 81.4375 226.8125 C80.1468213 223.37772212 78.85647646 219.94281897 77.56640625 216.5078125 C77.25608963 215.68156372 76.94577301 214.85531494 76.62605286 214.00402832 C73.63570278 206.03747748 70.67119978 198.06153306 67.72875977 190.07714844 C65.64455376 184.42444318 63.54349251 178.77863901 61.41671753 173.14183044 C60.19911967 169.91308227 58.98642858 166.68250007 57.77398682 163.45181274 C57.17913512 161.87082545 56.58196081 160.29070992 55.98236084 158.71151733 C55.14635882 156.50908302 54.31847308 154.30375079 53.4921875 152.09765625 C53.23961182 151.43853241 52.98703613 150.77940857 52.72680664 150.10031128 C51.4998468 146.79990833 51 144.58713627 51 141 C52.02770508 140.9906543 53.05541016 140.98130859 54.11425781 140.97167969 C57.98381464 140.93133966 61.85261254 140.86546754 65.72167969 140.79248047 C67.38564185 140.76452282 69.0497306 140.74318501 70.71386719 140.72900391 C85.25921061 140.59772824 98.49362577 138.84747978 110 129 C117.64212669 119.91548516 122 109.91819094 122 98 C121.08737691 88.60283414 117.85178899 80.99509612 110.90625 74.53515625 C100.44241793 66.10834067 86.83658736 66.6874283 74.05078125 66.5859375 C72.54191579 66.56718506 71.03306037 66.54760877 69.5242157 66.5272522 C65.59036227 66.47635471 61.65647499 66.43650491 57.72247314 66.39910889 C53.69315513 66.3588004 49.66397271 66.30783186 45.63476562 66.2578125 C37.75660373 66.16155648 29.8783736 66.07699408 22 66 C21.78559769 65.41499222 21.57119537 64.82998444 21.35029602 64.22724915 C19.09617589 58.07739669 16.84060341 51.92807827 14.58422852 45.77905273 C13.74499702 43.49142593 12.90612228 41.20366822 12.06762695 38.91577148 C11.25301136 36.69316634 10.4379034 34.47074159 9.62228394 32.24850464 C8.82892125 30.08675472 8.03669253 27.92458828 7.24563599 25.76199341 C4.84950424 19.23218371 2.36420562 12.75746513 -0.33129883 6.34448242 C-1.07918848 3.72236329 -0.74821002 2.55961707 0 0 Z " fill="#7B5CF4" transform="translate(895,330)"/>
<path d="M0 0 C28.61587103 -0.74491216 64.91653455 -1.40504064 88.31054688 17.89501953 C99.43767741 28.65055758 103.29362283 43.43856034 103.6027832 58.50488281 C103.77209706 81.60908483 99.24055807 102.52568613 83.06054688 119.83251953 C68.78961204 133.43413079 48.15611382 136.83115736 29.31054688 139.08251953 C28.10350098 139.25452881 26.89645508 139.42653809 25.65283203 139.60375977 C20.87173802 140.19918488 16.12388415 140.2618654 11.31054688 140.28564453 C10.36515549 140.29261353 9.4197641 140.29958252 8.44572449 140.3067627 C5.40061983 140.32411167 2.35569893 140.33048518 -0.68945312 140.33251953 C-2.24362442 140.33403015 -2.24362442 140.33403015 -3.82919312 140.33557129 C-18.99646312 140.32557319 -33.74970398 139.93631905 -48.68945312 137.08251953 C-49.46337402 136.94861816 -50.23729492 136.8147168 -51.03466797 136.67675781 C-66.60823646 133.93902203 -82.64083829 127.8018937 -92.41992188 114.77783203 C-103.16062022 98.17616002 -104.02486505 76.90282113 -100.50195312 57.89501953 C-97.2520797 44.36647665 -92.2045332 30.59366567 -80.68945312 22.08251953 C-79.95339844 21.29619141 -79.21734375 20.50986328 -78.45898438 19.69970703 C-63.0050448 5.09584312 -37.677178 3.04425734 -17.68945312 1.08251953 C-16.38621094 0.94974609 -15.08296875 0.81697266 -13.74023438 0.68017578 C-9.16024165 0.29894492 -4.59140036 0.1408763 0 0 Z M-52.68945312 54.08251953 C-57.16221938 59.8850271 -58.60005984 64.87149877 -57.68945312 72.08251953 C-55.68444432 75.88512243 -54.2625905 77.70042795 -50.68945312 80.08251953 C-45.55365966 80.08251953 -43.6513486 79.96077192 -39.81445312 76.45751953 C-36.21896712 70.74704175 -35.12311068 65.79283332 -36.08398438 59.16845703 C-37.07514375 55.75375313 -38.86713524 54.13511436 -41.68945312 52.08251953 C-46.15331072 50.25119334 -48.76824306 51.49618949 -52.68945312 54.08251953 Z M33.31054688 54.08251953 C28.58695404 60.38064331 27.62087886 65.37301639 28.31054688 73.08251953 C29.57030013 76.10592733 30.50033094 77.49581144 33.12304688 79.39501953 C36.13294679 80.34098808 38.16252723 80.52324228 41.31054688 80.08251953 C46.27849181 77.0627883 48.34099053 74.07200646 49.90429688 68.48876953 C50.80459533 63.15623254 50.26057526 58.83641808 47.68554688 54.08251953 C42.89037864 50.04448312 38.04677498 50.11432841 33.31054688 54.08251953 Z " fill="#144781" transform="translate(670.689453125,371.91748046875)"/>
<path d="M0 0 C22.77 0 45.54 0 69 0 C72.06202309 7.34885541 75.04805702 14.62763941 77.7578125 22.09765625 C78.09840698 23.02906433 78.43900146 23.96047241 78.78991699 24.92010498 C79.52195243 26.92237899 80.25286081 28.92506536 80.98272705 30.9281311 C82.97198476 36.38660538 84.97031261 41.84175613 86.96875 47.296875 C87.38275055 48.42732742 87.7967511 49.55777985 88.22329712 50.7224884 C92.24944436 61.70390413 96.3362478 72.66236316 100.43115234 83.61828613 C106.7369262 100.48977739 112.9883656 117.37871595 119.125 134.3125 C129.78676084 163.73018179 140.63512179 193.07833082 151.625 222.375 C151.92593567 223.17776367 152.22687134 223.98052734 152.53692627 224.80761719 C155.73727088 233.34359254 158.94930553 241.87492125 162.18841553 250.39627075 C163.60148681 254.11602354 165.00970455 257.83760455 166.41741943 261.55938721 C167.09208809 263.33892518 167.76917392 265.11754881 168.4487915 266.89520264 C169.38713575 269.34981409 170.31744432 271.80733258 171.24609375 274.265625 C171.5265303 274.99280731 171.80696686 275.71998962 172.09590149 276.46920776 C173.38385663 279.90223091 174 282.27833592 174 286 C145.29 286 116.58 286 87 286 C79.00971379 265.22525586 71.04288883 244.47370726 63.25390625 223.62890625 C59.26038394 212.97578654 55.15946778 202.36365293 51.0625 191.75 C50.69715149 190.80202545 50.33180298 189.8540509 49.9553833 188.87734985 C44.61226047 175.00877339 44.61226047 175.00877339 38.90795898 161.28613281 C38.07926235 159.19957317 37.48101392 157.18970438 37 155 C37.556875 154.58492187 38.11375 154.16984375 38.6875 153.7421875 C51.26159487 143.5894555 56.19522771 129.49012439 59 114 C60.33008755 96.46669419 59.29085787 77.80030794 47.625 63.75 C43.74299153 59.52934824 40.10204967 56.5162929 34.4375 55.125 C31.57993359 53.9645036 31.04112616 53.08956924 29.7265625 50.2265625 C28.91834034 47.81274464 28.13209803 45.39149998 27.36328125 42.96484375 C22.49851994 28.07639436 12.55254992 15.36127979 1 5 C0.34 4.67 -0.32 4.34 -1 4 C-0.67 2.68 -0.34 1.36 0 0 Z " fill="#5C51D8" transform="translate(806,330)"/>
<path d="M0 0 C0.66 0 1.32 0 2 0 C1.51805091 5.94844012 0.30130874 10.40513479 -2.4375 15.6875 C-2.9644043 16.71907227 -2.9644043 16.71907227 -3.50195312 17.77148438 C-17.05800065 43.39312393 -41.96870656 60.85830347 -69 70 C-73.55089797 71.36097159 -78.11165902 72.51679018 -82.75244141 73.51464844 C-84.30421398 73.84974771 -85.85327567 74.19756413 -87.39990234 74.55566406 C-110.37125934 79.82076857 -138.61106436 81.42331841 -161.41552734 74.23901367 C-165.68070555 72.83834901 -165.68070555 72.83834901 -169.86206055 73.90917969 C-171.83205601 75.50248281 -173.52283906 77.20855809 -175.25 79.0625 C-175.91257812 79.72701172 -176.57515625 80.39152344 -177.2578125 81.07617188 C-178.72203444 82.54977986 -180.17393134 84.03570622 -181.61523438 85.53173828 C-185.10539366 89.14409602 -188.66816929 92.68231639 -192.22558594 96.22827148 C-194.03709845 98.03803051 -195.84272448 99.85370638 -197.64160156 101.67602539 C-201.87000278 105.95105742 -206.08731852 110.12090205 -210.76593018 113.9039917 C-213.14163054 115.9987956 -213.14163054 115.9987956 -215.11761475 118.93780518 C-218.49875173 123.45123261 -221.97882951 127.21228479 -227.58595276 128.67424011 C-235.31908442 129.71423706 -243.11151113 129.3758644 -250.890625 129.171875 C-253.40692074 129.14946497 -255.9232692 129.13239692 -258.43963623 129.12042236 C-264.35855086 129.07947272 -270.27468167 128.98516926 -276.19246173 128.86422849 C-283.60048003 128.71616569 -291.00884645 128.65232585 -298.41796875 128.5859375 C-311.61334727 128.4576357 -324.80650128 128.25544807 -338 128 C-337.15081739 123.80466023 -335.38166359 122.01257848 -332.33178711 118.9753418 C-331.84705933 118.48856964 -331.36233154 118.00179749 -330.86291504 117.50027466 C-329.25821861 115.89257048 -327.6430298 114.29587242 -326.02734375 112.69921875 C-324.90392192 111.57885728 -323.78109231 110.45790169 -322.65882874 109.33638 C-320.30190076 106.98405658 -317.94014945 104.63672733 -315.57446289 102.29321289 C-312.56083724 99.30770659 -309.55580069 96.3137465 -306.55396175 93.31639385 C-303.67322391 90.44085034 -300.78783759 87.56998829 -297.90234375 84.69921875 C-297.36045851 84.15921423 -296.81857327 83.61920971 -296.26026726 83.06284142 C-290.89215308 77.71875727 -285.50247902 72.45890773 -279.74708557 67.5271759 C-276.97368196 65.10286697 -274.39463764 62.49979364 -271.8125 59.875 C-271.2656958 59.32440918 -270.7188916 58.77381836 -270.15551758 58.20654297 C-268.43450493 56.47349183 -266.71682168 54.73720227 -265 53 C-251.56972245 39.4102901 -251.56972245 39.4102901 -245.5859375 34.3671875 C-243.97717593 32.98032408 -242.48334641 31.51930632 -241 30 C-237.69508839 31.03278488 -235.33223012 32.46699405 -232.6875 34.625 C-199.12458223 60.34611456 -146.22433451 61.90433714 -106 56.875 C-66.55986212 51.313944 -27.49232657 35.81046785 -2 4 C-0.77634135 1.83267886 -0.77634135 1.83267886 0 0 Z " fill="#197EE8" transform="translate(823,488)"/>
<path d="M0 0 C1.63984529 0.00031732 3.27971127 0.01165397 4.91943359 0.03173828 C6.21365738 0.03598312 6.21365738 0.03598312 7.5340271 0.04031372 C10.29544829 0.05152746 13.05654759 0.07663394 15.81787109 0.10205078 C17.68765808 0.11207905 19.55745015 0.12120517 21.42724609 0.12939453 C26.01591218 0.15147066 30.60433702 0.18600844 35.19287109 0.22705078 C35.19287109 1.54705078 35.19287109 2.86705078 35.19287109 4.22705078 C33.2200592 5.92860104 31.35718572 7.30872417 29.19287109 8.72705078 C27.89587453 9.61299102 26.6003565 10.50109879 25.30615234 11.39111328 C24.62762207 11.85420898 23.9490918 12.31730469 23.25 12.79443359 C19.88839235 15.13551046 16.63998885 17.62197712 13.38037109 20.10205078 C7.23410728 24.74710194 0.99493872 29.23845155 -5.31469727 33.65844727 C-10.47544351 37.27583661 -15.58555344 40.95744578 -20.68212891 44.66455078 C-27.53064371 49.63624128 -34.46146802 54.47167049 -41.47265625 59.21118164 C-42.18244629 59.69208252 -42.89223633 60.1729834 -43.62353516 60.66845703 C-44.37519958 61.15885468 -45.12686401 61.64925232 -45.90130615 62.1545105 C-48.13816034 63.74991766 -50.07417811 65.33248369 -52.10470581 67.15837097 C-64.6704481 77.91584765 -76.2044588 77.82263543 -92.18603516 77.39892578 C-94.6951844 77.37649617 -97.20438682 77.35943742 -99.71360779 77.34747314 C-106.26290428 77.30203125 -112.80891869 77.18449475 -119.35693359 77.05102539 C-126.06038545 76.92078987 -132.76487193 76.87328689 -139.46923828 76.81298828 C-152.58325481 76.68495889 -165.69501593 76.48298782 -178.80712891 76.22705078 C-177.98599521 72.26313274 -176.51540397 70.57253497 -173.61572266 67.70751953 C-172.75269531 66.84964844 -171.88966797 65.99177734 -171.00048828 65.10791016 C-169.63633789 63.77469727 -169.63633789 63.77469727 -168.24462891 62.41455078 C-167.36226562 61.53734375 -166.47990234 60.66013672 -165.57080078 59.75634766 C-161.67207016 55.90372176 -157.75796668 52.13495343 -153.57275391 48.59423828 C-150.89597363 46.30558272 -148.6743678 43.94813053 -146.48291016 41.19189453 C-138.09160049 30.88916173 -138.09160049 30.88916173 -132.40917969 29.74365234 C-127.01385614 29.65739449 -121.79605577 30.75270615 -116.52001953 31.78027344 C-112.15550399 32.49905165 -107.84627738 32.52201664 -103.43212891 32.47705078 C-102.14121338 32.46593262 -102.14121338 32.46593262 -100.82421875 32.45458984 C-62.93180233 31.82246427 -30.7316555 1.83278438 0 0 Z " fill="#197CE6" transform="translate(800.80712890625,539.77294921875)"/>
<path d="M0 0 C0.84626953 -0.03222656 1.69253906 -0.06445312 2.56445312 -0.09765625 C8.61200368 -0.10712775 8.61200368 -0.10712775 11.22558594 1.90600586 C15.22500767 6.59830351 16.84553091 11.03513866 16.4375 17.125 C15.64061766 22.63831383 13.21294558 26.01916105 9.25 29.875 C6.5625 31.625 6.5625 31.625 3.12890625 32.08203125 C-0.47522515 33.21955634 -0.47522515 33.21955634 -1.61254883 35.66845703 C-2.61750376 38.44094572 -3.42882936 41.21281348 -4.1875 44.0625 C-4.46464844 45.01060547 -4.74179687 45.95871094 -5.02734375 46.93554688 C-5.86381724 49.82393303 -6.6557339 52.72136629 -7.4375 55.625 C-8.00508915 57.69925137 -8.57279241 59.77347151 -9.140625 61.84765625 C-9.57338051 63.43997818 -10.00585277 65.03237728 -10.4375 66.625 C-9.9425 67.07875 -9.4475 67.5325 -8.9375 68 C-7.4375 69.625 -7.4375 69.625 -7.4375 71.625 C-6.4475 71.955 -5.4575 72.285 -4.4375 72.625 C-3.22056124 75.05887753 -3.11790104 77.04338846 -2.875 79.75 C-2.79121094 80.66007812 -2.70742188 81.57015625 -2.62109375 82.5078125 C-2.56050781 83.20648438 -2.49992188 83.90515625 -2.4375 84.625 C-1.43332031 85.02589844 -0.42914062 85.42679687 0.60546875 85.83984375 C25.01169977 95.86581422 41.81655218 112.06217667 52.6015625 136.015625 C53.5625 138.625 53.5625 138.625 53.5625 141.625 C49.12279069 141.2326536 47.12519672 138.18563093 44.4375 135 C39.64102557 129.56906282 34.77732986 125.41541297 28.5625 121.625 C27.58410156 120.99207031 26.60570312 120.35914063 25.59765625 119.70703125 C-14.12174774 95.28975199 -67.54188506 93.60845578 -111.79370117 104.10888672 C-137.9233651 110.61577981 -165.16436827 121.06646385 -184.703125 140.2265625 C-186.4375 141.625 -186.4375 141.625 -189.4375 141.625 C-188.9638467 137.31063622 -186.17675078 134.80638689 -183.3125 131.8125 C-182.80750977 131.2769751 -182.30251953 130.7414502 -181.78222656 130.18969727 C-180.78031329 129.13049971 -179.77519058 128.07432713 -178.76660156 127.02148438 C-177.71981747 125.9216304 -176.69542089 124.80046766 -175.6796875 123.671875 C-147.67141334 93.46399815 -100.24465752 78.79365005 -60.4375 76.625 C-59.00529358 76.6080716 -57.57292497 76.60115459 -56.140625 76.60546875 C-49.06954471 76.7321967 -49.06954471 76.7321967 -42.984375 73.66796875 C-41.64682759 72.08792705 -40.36047612 70.4626941 -39.13671875 68.79296875 C-36.57836887 65.52886717 -34.38926707 64.74342464 -30.4375 63.625 C-28.77122362 63.58893341 -27.10362277 63.58242446 -25.4375 63.625 C-23.55318514 59.28951603 -21.68395104 54.94795708 -19.82836914 50.60009766 C-19.19510206 49.12209607 -18.55775734 47.64583466 -17.91625977 46.17138672 C-16.99457098 44.05100275 -16.08775466 41.92478163 -15.18359375 39.796875 C-14.89407333 39.13943298 -14.60455292 38.48199097 -14.30625916 37.80462646 C-13.19814954 35.16426377 -12.37426237 33.17613668 -12.70507812 30.29296875 C-13.5310016 28.41206568 -14.47403956 26.65480234 -15.5 24.875 C-17.62265534 20.67634109 -18.33852445 17.27428619 -17.4375 12.625 C-14.05743185 3.17460538 -9.94610386 -0.0754064 0 0 Z " fill="#1C7EE6" transform="translate(771.4375,239.375)"/>
<path d="M0 0 C6.28460503 1.56412674 10.49562472 5.68624402 14 11 C21.53029722 25.02608076 21.60602428 47.02118726 17.56567383 62.31567383 C14.25218715 72.51884325 8.58154904 81.74225468 -1 87 C-7.32916035 89.78564986 -13.25730002 90.86362533 -20 89 C-24.79793835 86.73682153 -26.88737819 84.10348414 -29.140625 79.48828125 C-32.26759441 70.43428346 -32.40004643 61.53521777 -32.375 52.0625 C-32.37478851 51.32933563 -32.37457703 50.59617126 -32.37435913 49.84078979 C-32.3259512 33.04920209 -31.13132992 14.94008525 -19 2 C-13.60705362 -1.59529759 -6.29309056 -0.48980705 0 0 Z " fill="#187EE8" transform="translate(835,393)"/>
<path d="M0 0 C-0.60563336 4.30318442 -2.1792957 7.45070777 -4.25 11.25 C-15.70279753 33.29139993 -17.60694031 58.02013361 -10.83984375 81.7421875 C-10 85 -10 85 -10 89 C-16.30484521 89.54824741 -21.55834521 88.31348287 -27 85 C-34.84391148 77.23813781 -36.34785979 65.42029879 -36.46850586 54.8684082 C-36.45827393 53.8393335 -36.44804199 52.81025879 -36.4375 51.75 C-36.42920166 50.66098389 -36.42090332 49.57196777 -36.41235352 48.44995117 C-36.11717701 34.2615205 -33.16262027 17.62859662 -23.015625 6.90234375 C-21.07523737 5.3718442 -19.17919041 4.15905147 -17 3 C-15.88625 2.38125 -14.7725 1.7625 -13.625 1.125 C-8.98632554 -0.31458862 -4.81424312 -0.26153836 0 0 Z " fill="#1C7EE5" transform="translate(568,393)"/>
<path d="M0 0 C2.7532142 2.34576178 4.52576965 4.74763886 6.53515625 7.76171875 C5.99461571 12.30225929 5.99461571 12.30225929 4.53515625 13.76171875 C1.86456774 13.90287036 -0.78916613 13.80418982 -3.46484375 13.76171875 C-3.46484375 13.10171875 -3.46484375 12.44171875 -3.46484375 11.76171875 C-5.4858908 11.90455967 -7.50667352 12.05114258 -9.52734375 12.19921875 C-11.30625 12.32683594 -11.30625 12.32683594 -13.12109375 12.45703125 C-15.67438309 12.68969079 -18.03212542 13.03796569 -20.52734375 13.57421875 C-23.46484375 13.76171875 -23.46484375 13.76171875 -25.96484375 12.07421875 C-27.46484375 9.76171875 -27.46484375 9.76171875 -27.46484375 7.82421875 C-25.73709291 4.26073264 -23.86528178 1.47950598 -20.28515625 -0.35546875 C-14.23298842 -2.24991463 -5.81077104 -2.91919876 0 0 Z " fill="#102A50" transform="translate(674.46484375,454.23828125)"/>
<path d="M0 0 C22.77 0 45.54 0 69 0 C69.495 1.98 69.495 1.98 70 4 C46.57 4 23.14 4 -1 4 C-0.67 2.68 -0.34 1.36 0 0 Z " fill="#A9A7DC" transform="translate(806,330)"/>
<path d="M0 0 C20.79 0 41.58 0 63 0 C63 0.99 63 1.98 63 3 C42.21 3 21.42 3 0 3 C0 2.01 0 1.02 0 0 Z " fill="#A7A7F8" transform="translate(906,330)"/>
<path d="M0 0 C1.64510941 0.00015915 3.29022379 0.00585551 4.93530273 0.01586914 C6.23164894 0.01799156 6.23164894 0.01799156 7.55418396 0.02015686 C10.32578941 0.025773 13.09731528 0.0383282 15.86889648 0.05102539 C17.74324428 0.05603831 19.61759334 0.06060158 21.49194336 0.06469727 C26.09679192 0.07574767 30.70158069 0.09302309 35.30639648 0.11352539 C35.30639648 4.11352539 35.30639648 4.11352539 33.84545898 5.59790039 C33.21381836 6.01555664 32.58217773 6.43321289 31.93139648 6.86352539 C31.30491211 7.29149414 30.67842773 7.71946289 30.03295898 8.16040039 C28.30639648 9.11352539 28.30639648 9.11352539 26.30639648 9.11352539 C26.96639648 7.46352539 27.62639648 5.81352539 28.30639648 4.11352539 C23.80404053 4.0888018 19.30172412 4.0706542 14.79931641 4.05859375 C13.26773388 4.05356579 11.73615616 4.04674255 10.20458984 4.03808594 C8.00283626 4.0259531 5.80114616 4.02028172 3.59936523 4.01586914 C2.57264961 4.00812721 2.57264961 4.00812721 1.52519226 4.00022888 C-1.50266593 3.99987179 -3.79510494 4.1473592 -6.69360352 5.11352539 C-4.28301446 0.13164133 -4.28301446 0.13164133 0 0 Z " fill="#4F9CE9" transform="translate(800.693603515625,539.886474609375)"/>
<path d="M0 0 C0.66 0 1.32 0 2 0 C1.53885666 6.30702199 -0.00483572 10.86803314 -2.9375 16.4375 C-3.29779297 17.15615234 -3.65808594 17.87480469 -4.02929688 18.61523438 C-6.71803571 23.85901786 -6.71803571 23.85901786 -9 25 C-8.67 23.88625 -8.34 22.7725 -8 21.625 C-6.911357 18.30540283 -6.911357 18.30540283 -7 16 C-7.45890625 16.5053125 -7.9178125 17.010625 -8.390625 17.53125 C-9.00421875 18.1809375 -9.6178125 18.830625 -10.25 19.5 C-10.85328125 20.1496875 -11.4565625 20.799375 -12.078125 21.46875 C-14 23 -14 23 -18 23 C-18 23.66 -18 24.32 -18 25 C-18.99 25.33 -19.98 25.66 -21 26 C-21 23 -21 23 -19.12890625 21.08984375 C-17.85853516 20.02443359 -17.85853516 20.02443359 -16.5625 18.9375 C-6.86708528 10.60305985 -6.86708528 10.60305985 0 0 Z " fill="#4299EE" transform="translate(823,488)"/>
<path d="M0 0 C0.99 0.495 0.99 0.495 2 1 C-0.63168452 4.47455007 -3.12202703 7.50526293 -7.4509716 8.64568901 C-10.37689134 8.85971723 -13.23468999 8.86624136 -16.16772461 8.79467773 C-17.27090027 8.79569992 -18.37407593 8.79672211 -19.51068115 8.79777527 C-23.14222974 8.79291424 -26.77123664 8.73853694 -30.40234375 8.68359375 C-32.92581306 8.67053244 -35.44930015 8.66057079 -37.97279358 8.65357971 C-43.92639305 8.6296215 -49.87918258 8.5745049 -55.83236653 8.50413328 C-62.61340799 8.42572619 -69.39449414 8.38736268 -76.1758765 8.35226524 C-90.11775162 8.27921611 -104.0588261 8.15619575 -118 8 C-118 7.01 -118 6.02 -118 5 C-117.01 5 -116.02 5 -115 5 C-115 5.66 -115 6.32 -115 7 C-100.89160194 7.00956307 -86.78362794 6.98450832 -72.67536736 6.9197216 C-66.12430191 6.89064728 -59.57359489 6.87263655 -53.02246094 6.87988281 C-46.70038957 6.88646913 -40.37902692 6.8640292 -34.0571022 6.82144547 C-31.64500577 6.81030204 -29.23283758 6.80962512 -26.82073593 6.81957626 C-23.44204125 6.83172878 -20.0655164 6.80670117 -16.68701172 6.77294922 C-15.68935287 6.78517014 -14.69169403 6.79739105 -13.6638031 6.8099823 C-8.78713039 6.72217528 -5.8863184 6.47449435 -2.33206177 2.95169067 C-1.56248138 1.97763275 -0.792901 1.00357483 0 0 Z " fill="#3B93E5" transform="translate(603,608)"/>
<path d="M0 0 C2.35418843 2.35418843 2.99608031 4.25583671 4.125 7.375 C4.47820312 8.33148437 4.83140625 9.28796875 5.1953125 10.2734375 C6 13 6 13 6 17 C-22.71 17 -51.42 17 -81 17 C-81.33 15.68 -81.66 14.36 -82 13 C-81.34 13 -80.68 13 -80 13 C-80 13.66 -80 14.32 -80 15 C-52.28 15.33 -24.56 15.66 4 16 C2.68 12.7 1.36 9.4 0 6 C-0.25 2.375 -0.25 2.375 0 0 Z " fill="#7C75E4" transform="translate(974,599)"/>
<path d="M0 0 C0.66 0 1.32 0 2 0 C3.7265625 2.484375 3.7265625 2.484375 5.625 5.75 C6.25664063 6.81734375 6.88828125 7.8846875 7.5390625 8.984375 C9 12 9 12 9 16 C-16.41 16 -41.82 16 -68 16 C-68.66 14.35 -69.32 12.7 -70 11 C-69.34 11 -68.68 11 -68 11 C-67.67 11.99 -67.34 12.98 -67 14 C-30.37 14.495 -30.37 14.495 7 15 C6.505 12.525 6.505 12.525 6 10 C5.01 9.67 4.02 9.34 3 9 C1.11420063 5.78715662 0 3.75366417 0 0 Z " fill="#997AF4" transform="translate(1067,600)"/>
<path d="M0 0 C11.22 0 22.44 0 34 0 C34 0.99 34 1.98 34 3 C22.78 3.33 11.56 3.66 0 4 C0 2.68 0 1.36 0 0 Z " fill="#816EF3" transform="translate(946,471)"/>
<path d="M0 0 C3.43792506 1.60872028 6.5103473 3.61685887 9.6875 5.6875 C17.33203502 10.54516371 25.56918285 13.76902816 34 17 C34 17.66 34 18.32 34 19 C27.67546858 18.54520223 23.18305647 16.98237176 17.625 14 C16.55958984 13.44699219 16.55958984 13.44699219 15.47265625 12.8828125 C13.64330232 11.93168731 11.82111104 10.9668141 10 10 C9.34 9.67 8.68 9.34 8 9 C8 8.34 8 7.68 8 7 C7.01 7 6.02 7 5 7 C5 6.34 5 5.68 5 5 C4.01 5 3.02 5 2 5 C2 4.34 2 3.68 2 3 C1.34 3 0.68 3 0 3 C0 2.01 0 1.02 0 0 Z " fill="#429BF0" transform="translate(585,520)"/>
<path d="M0 0 C3.54240498 4.06897869 5.88851365 8.3233111 8.25 13.125 C8.79527344 14.19814453 8.79527344 14.19814453 9.3515625 15.29296875 C12 20.61971335 12 20.61971335 12 24 C7.58540416 23.59773543 5.46302944 20.59612875 2.75 17.4375 C2.29109375 16.91736328 1.8321875 16.39722656 1.359375 15.86132812 C0.2317857 14.58104445 -0.88517315 13.29141202 -2 12 C-1.01 12 -0.02 12 1 12 C1.66 12.66 2.32 13.32 3 14 C3.33 12.02 3.66 10.04 4 8 C3.34 8 2.68 8 2 8 C0.3125 5.6875 0.3125 5.6875 -1 3 C-0.67 2.01 -0.34 1.02 0 0 Z " fill="#3A91E8" transform="translate(813,357)"/>
<path d="M0 0 C9.9 0 19.8 0 30 0 C30 0.99 30 1.98 30 3 C20.1 3 10.2 3 0 3 C0 2.01 0 1.02 0 0 Z " fill="#69B0F3" transform="translate(669,547)"/>
<path d="M0 0 C0.33 1.32 0.66 2.64 1 4 C-0.49739583 5.20442708 -1.99479167 6.40885417 -3.4921875 7.61328125 C-5.25292107 9.12270545 -5.25292107 9.12270545 -7 12 C-7.66 12 -8.32 12 -9 12 C-9 12.66 -9 13.32 -9 14 C-8.34 14.33 -7.68 14.66 -7 15 C-8.42915851 16.34227046 -9.86862672 17.67357096 -11.3125 19 C-12.51326172 20.11375 -12.51326172 20.11375 -13.73828125 21.25 C-16 23 -16 23 -19 23 C-18.52626199 18.68486461 -15.73846751 16.18277867 -12.875 13.1875 C-12.38088623 12.65995117 -11.88677246 12.13240234 -11.37768555 11.58886719 C-7.66580422 7.64419969 -3.87289263 3.78682835 0 0 Z " fill="#70B8F5" transform="translate(601,358)"/>
<path d="M0 0 C-0.53675903 3.85103301 -2.11600923 5.31797587 -5.0625 7.75 C-6.16271484 8.67039062 -6.16271484 8.67039062 -7.28515625 9.609375 C-7.85105469 10.06828125 -8.41695312 10.5271875 -9 11 C-9.33 9.68 -9.66 8.36 -10 7 C-8.71372289 5.82739389 -7.42080217 4.6620717 -6.125 3.5 C-5.04605469 2.52546875 -5.04605469 2.52546875 -3.9453125 1.53125 C-2 0 -2 0 0 0 Z M-12 11 C-11.34 11.33 -10.68 11.66 -10 12 C-10.33 12.66 -10.66 13.32 -11 14 C-9.35 13.67 -7.7 13.34 -6 13 C-8.14913488 15.29017186 -10.34518412 17.01315589 -13 18.6875 C-14.0209375 19.34298828 -14.0209375 19.34298828 -15.0625 20.01171875 C-17 21 -17 21 -20 21 C-20 19 -20 19 -17.6875 16.5625 C-16.800625 15.716875 -15.91375 14.87125 -15 14 C-14.401875 13.401875 -13.80375 12.80375 -13.1875 12.1875 C-12.795625 11.795625 -12.40375 11.40375 -12 11 Z " fill="#2487F0" transform="translate(612,351)"/>
<path d="M0 0 C0.99 0.33 1.98 0.66 3 1 C5.10028785 1.11748777 7.20399448 1.17684325 9.30737305 1.20532227 C10.60849533 1.22526749 11.90961761 1.24521271 13.25016785 1.26576233 C14.6706836 1.28274546 16.0912006 1.29962431 17.51171875 1.31640625 C18.96475306 1.33698137 20.41778146 1.35797799 21.87080383 1.37937927 C25.6929953 1.43454234 29.51524026 1.48397698 33.33752441 1.53222656 C37.23873652 1.58248372 41.13987105 1.63814778 45.04101562 1.69335938 C52.69394469 1.80087041 60.34693833 1.90233098 68 2 C68.33 1.34 68.66 0.68 69 0 C69.495 1.98 69.495 1.98 70 4 C46.57 4 23.14 4 -1 4 C-0.67 2.68 -0.34 1.36 0 0 Z " fill="#9189DE" transform="translate(806,330)"/>
<path d="M0 0 C-0.33 1.32 -0.66 2.64 -1 4 C-2.65 4.33 -4.3 4.66 -6 5 C-6 5.66 -6 6.32 -6 7 C-6.99 7 -7.98 7 -9 7 C-9 7.66 -9 8.32 -9 9 C-9.99 9 -10.98 9 -12 9 C-12 9.66 -12 10.32 -12 11 C-12.99 11 -13.98 11 -15 11 C-15 11.66 -15 12.32 -15 13 C-19.64203897 15.53309233 -23.65155992 17.46515599 -29 18 C-29 17.34 -29 16.68 -29 16 C-27.88882813 15.43152344 -26.77765625 14.86304688 -25.6328125 14.27734375 C-18.00620673 10.3324294 -10.65625079 6.41236123 -3.78515625 1.21484375 C-2 0 -2 0 0 0 Z " fill="#57A7F4" transform="translate(800,514)"/>
<path d="M0 0 C8.58 0 17.16 0 26 0 C26 0.99 26 1.98 26 3 C17.42 3 8.84 3 0 3 C0 2.01 0 1.02 0 0 Z " fill="#7B9ABD" transform="translate(668,372)"/>
<path d="M0 0 C6.17406484 1.59674091 11.11129937 4.08071918 16.4375 7.5 C17.05254395 7.89179443 17.66758789 8.28358887 18.30126953 8.68725586 C21.22620781 10.6121562 23.03293621 12.04940431 25 15 C24.01 15.495 24.01 15.495 23 16 C20.95206199 14.87482475 18.9604404 13.64651205 17 12.375 C11.49801448 8.8645685 5.91415085 5.77684735 0 3 C0 2.01 0 1.02 0 0 Z " fill="#9378F7" transform="translate(1029,337)"/>
<path d="M0 0 C7.92 0 15.84 0 24 0 C24 0.99 24 1.98 24 3 C16.08 3 8.16 3 0 3 C0 2.01 0 1.02 0 0 Z " fill="#AEA6FA" transform="translate(971,330)"/>
<path d="M0 0 C-0.59834725 4.14298667 -2.00664285 7.18194377 -4.0625 10.8125 C-4.61035156 11.78832031 -5.15820312 12.76414062 -5.72265625 13.76953125 C-6.14417969 14.50558594 -6.56570313 15.24164063 -7 16 C-7.66 16 -8.32 16 -9 16 C-7.31057815 11.49487506 -5.17831861 7.2840266 -3 3 C-6.96 3.66 -10.92 4.32 -15 5 C-15 4.01 -15 3.02 -15 2 C-10.13948404 -0.59227518 -5.34728867 -0.18689553 0 0 Z " fill="#4A9BED" transform="translate(568,393)"/>
<path d="M0 0 C0.33 0.99 0.66 1.98 1 3 C-6 10 -13 17 -20 24 C-20.33 23.01 -20.66 22.02 -21 21 C-14.07 14.07 -7.14 7.14 0 0 Z " fill="#69B4E6" transform="translate(537,561)"/>
<path d="M0 0 C0 0.99 0 1.98 0 3 C-4.65537356 3.92092281 -9.14685433 4.12205997 -13.875 4.0625 C-14.90753906 4.05573242 -14.90753906 4.05573242 -15.9609375 4.04882812 C-17.64066335 4.03716336 -19.32034375 4.01923271 -21 4 C-21 3.01 -21 2.02 -21 1 C-18.62515638 0.83079995 -16.25016522 0.66457137 -13.875 0.5 C-13.20984375 0.45230469 -12.5446875 0.40460937 -11.859375 0.35546875 C-7.89764586 0.08358538 -3.97061445 -0.04947806 0 0 Z " fill="#1887F5" transform="translate(729,571)"/>
<path d="M0 0 C11.88 0 23.76 0 36 0 C34.93197254 4.27210984 34.56121574 4.84168743 31 7 C30.34 7 29.68 7 29 7 C29.66 5.35 30.32 3.7 31 2 C20.77 1.67 10.54 1.34 0 1 C0 0.67 0 0.34 0 0 Z " fill="#3C92EC" transform="translate(798,542)"/>
<path d="M0 0 C0.33 0.99 0.66 1.98 1 3 C0.34 3 -0.32 3 -1 3 C-1 3.66 -1 4.32 -1 5 C-1.99 5 -2.98 5 -4 5 C-4 5.66 -4 6.32 -4 7 C-4.99 7 -5.98 7 -7 7 C-7 7.66 -7 8.32 -7 9 C-8.78881736 10.00508801 -10.58114696 11.00392736 -12.375 12 C-13.37273438 12.556875 -14.37046875 13.11375 -15.3984375 13.6875 C-18 15 -18 15 -20 15 C-20 14.01 -20 13.02 -20 12 C-18.33710937 11.07767578 -18.33710937 11.07767578 -16.640625 10.13671875 C-15.17699811 9.32046529 -13.71346116 8.50405056 -12.25 7.6875 C-11.52039063 7.28337891 -10.79078125 6.87925781 -10.0390625 6.46289062 C-6.51875601 4.49471927 -3.14038579 2.5536295 0 0 Z " fill="#4F9FF4" transform="translate(790,546)"/>
<path d="M0 0 C4.95 0 9.9 0 15 0 C14.67 1.32 14.34 2.64 14 4 C9.38 4 4.76 4 0 4 C0 2.68 0 1.36 0 0 Z " fill="#114F8F" transform="translate(653,373)"/>
<path d="M0 0 C0 0.99 0 1.98 0 3 C-1.60032137 3.84069415 -3.20541171 4.67231505 -4.8125 5.5 C-6.15248047 6.19609375 -6.15248047 6.19609375 -7.51953125 6.90625 C-10 8 -10 8 -13 8 C-13.2475 8.639375 -13.495 9.27875 -13.75 9.9375 C-15 12 -15 12 -17.125 12.75 C-18.053125 12.87375 -18.053125 12.87375 -19 13 C-19 12.01 -19 11.02 -19 10 C-16.8046875 8.28125 -16.8046875 8.28125 -13.875 6.5 C-12.87339844 5.89027344 -11.87179687 5.28054688 -10.83984375 4.65234375 C-2.84397163 0 -2.84397163 0 0 0 Z " fill="#527AAC" transform="translate(610,382)"/>
<path d="M0 0 C3.91416084 4.53071124 6.8225846 9.52804911 9.8125 14.6875 C10.5849707 15.9878418 10.5849707 15.9878418 11.37304688 17.31445312 C11.85451172 18.14267578 12.33597656 18.97089844 12.83203125 19.82421875 C13.27264893 20.57791748 13.7132666 21.33161621 14.16723633 22.1081543 C14.44204834 22.73246338 14.71686035 23.35677246 15 24 C14.67 24.66 14.34 25.32 14 26 C13.67 25.01 13.34 24.02 13 23 C12.34 23 11.68 23 11 23 C11 22.01 11 21.02 11 20 C10.34 20 9.68 20 9 20 C8.34 17.69 7.68 15.38 7 13 C6.34 13 5.68 13 5 13 C4.67 11.35 4.34 9.7 4 8 C3.34 8 2.68 8 2 8 C1.67 6.35 1.34 4.7 1 3 C0.34 3 -0.32 3 -1 3 C-0.67 2.01 -0.34 1.02 0 0 Z " fill="#A785F6" transform="translate(1052,573)"/>
<path d="M0 0 C-0.33 0.99 -0.66 1.98 -1 3 C-6.05002222 4.03590199 -10.87416389 4.10251672 -16 4 C-16 3.01 -16 2.02 -16 1 C-14.27327966 0.63409254 -12.54346345 0.28277805 -10.8125 -0.0625 C-9.36810547 -0.35833984 -9.36810547 -0.35833984 -7.89453125 -0.66015625 C-4.96389138 -1.00423947 -2.83692932 -0.74164697 0 0 Z " fill="#3291F2" transform="translate(696,319)"/>
<path d="M0 0 C2.35418843 2.35418843 2.99608031 4.25583671 4.125 7.375 C4.47820313 8.33148437 4.83140625 9.28796875 5.1953125 10.2734375 C6 13 6 13 6 17 C0.39 17 -5.22 17 -11 17 C-11 16.67 -11 16.34 -11 16 C-6.05 16 -1.1 16 4 16 C3.34 14.47375 2.68 12.9475 2 11.375 C0.40086848 7.41095567 -0.45561897 4.32838018 0 0 Z " fill="#8D83EF" transform="translate(974,599)"/>
<path d="M0 0 C0 3 0 3 -1.50390625 4.578125 C-2.18324219 5.12984375 -2.86257813 5.6815625 -3.5625 6.25 C-7.12707024 9.21941997 -10.36955252 12.3445265 -13.5546875 15.71484375 C-15 17 -15 17 -17 17 C-15.68692628 14.10147635 -14.27315362 12.01722783 -12.03125 9.765625 C-11.17466797 8.90517578 -11.17466797 8.90517578 -10.30078125 8.02734375 C-9.70652344 7.44082031 -9.11226562 6.85429688 -8.5 6.25 C-7.90574219 5.64800781 -7.31148437 5.04601562 -6.69921875 4.42578125 C-6.12816406 3.85730469 -5.55710937 3.28882813 -4.96875 2.703125 C-4.44732422 2.18395508 -3.92589844 1.66478516 -3.38867188 1.12988281 C-2 0 -2 0 0 0 Z " fill="#68A8F2" transform="translate(645,592)"/>
<path d="M0 0 C-0.57889381 3.28754511 -1.54828411 4.93672495 -3.9375 7.25 C-4.46214844 7.77078125 -4.98679687 8.2915625 -5.52734375 8.828125 C-7 10 -7 10 -9 10 C-9 10.99 -9 11.98 -9 13 C-9.66 13 -10.32 13 -11 13 C-11.66 14.32 -12.32 15.64 -13 17 C-12.44396988 12.81474628 -11.07426461 10.22803567 -8.625 6.8125 C-8.01914062 5.95269531 -7.41328125 5.09289062 -6.7890625 4.20703125 C-4.8049884 1.75942892 -3.30398736 0 0 0 Z " fill="#4F9CF0" transform="translate(821,393)"/>
<path d="M0 0 C5.47932789 1.54545146 10.11429181 4.15543212 15 7 C15 7.99 15 8.98 15 10 C9.52067211 8.45454854 4.88570819 5.84456788 0 3 C0 2.01 0 1.02 0 0 Z " fill="#5BA7F2" transform="translate(775,327)"/>
<path d="M0 0 C0.33 0.99 0.66 1.98 1 3 C-3.62 7.62 -8.24 12.24 -13 17 C-13.33 16.01 -13.66 15.02 -14 14 C-9.38 9.38 -4.76 4.76 0 0 Z " fill="#59A9EC" transform="translate(571,528)"/>
<path d="M0 0 C0.33 0 0.66 0 1 0 C0.73260866 6.01630523 0.12635909 10.30053548 -4 15 C-6.75 16.375 -6.75 16.375 -9 17 C-9 16.01 -9 15.02 -9 14 C-8.2575 13.484375 -7.515 12.96875 -6.75 12.4375 C-2.8427485 8.97425435 -1.65985477 4.85901621 0 0 Z " fill="#678DB8" transform="translate(721,437)"/>
<path d="M0 0 C2.81355277 1.40677639 2.86065875 3.09327072 4 6 C5.82741522 9.11997721 7.72661948 12.18787339 9.63671875 15.2578125 C11 18 11 18 10 21 C10 20.34 10 19.68 10 19 C9.34 19 8.68 19 8 19 C8 18.01 8 17.02 8 16 C7.34 16 6.68 16 6 16 C5.731875 14.865625 5.46375 13.73125 5.1875 12.5625 C4.5996875 10.7990625 4.5996875 10.7990625 4 9 C3.01 8.67 2.02 8.34 1 8 C-0.1875 4.4375 -0.1875 4.4375 -1 1 C-0.67 0.67 -0.34 0.34 0 0 Z " fill="#9C87F6" transform="translate(1020,518)"/>
<path d="M0 0 C4.62 0 9.24 0 14 0 C13.67 0.99 13.34 1.98 13 3 C8.38 3 3.76 3 -1 3 C-0.67 2.01 -0.34 1.02 0 0 Z " fill="#2EB0EC" transform="translate(714,316)"/>
<path d="M0 0 C6.93 0.495 6.93 0.495 14 1 C14 1.99 14 2.98 14 4 C9.1666528 4.08333357 4.76307437 3.95261487 0 3 C0 2.01 0 1.02 0 0 Z " fill="#4C74A9" transform="translate(701,373)"/>
<path d="M0 0 C2.60649468 2.60649468 3.44024981 5.53134321 4.625 8.9375 C4.85445312 9.57107422 5.08390625 10.20464844 5.3203125 10.85742188 C6.32801716 13.70958596 7 15.95183307 7 19 C6.34 19 5.68 19 5 19 C4.15399724 16.9635505 3.3237175 14.92056513 2.5 12.875 C1.80390625 11.16957031 1.80390625 11.16957031 1.09375 9.4296875 C0.01684959 6.0528355 -0.21360807 3.51385272 0 0 Z " fill="#887EEA" transform="translate(958,556)"/>
<path d="M0 0 C3.13010458 1.39192704 5.32336692 3.02642226 7.75 5.4375 C8.67039062 6.33275391 8.67039062 6.33275391 9.609375 7.24609375 C11 9 11 9 11 12 C10.34 12 9.68 12 9 12 C9 11.34 9 10.68 9 10 C8.443125 9.773125 7.88625 9.54625 7.3125 9.3125 C4.31958801 7.61382022 2.26472763 5.57927313 0 3 C0 2.01 0 1.02 0 0 Z " fill="#AA80FA" transform="translate(1054,352)"/>
<path d="M0 0 C0.66 0.33 1.32 0.66 2 1 C2.4140625 3.28515625 2.4140625 3.28515625 2.625 6.0625 C2.69976563 6.98160156 2.77453125 7.90070313 2.8515625 8.84765625 C2.92503906 9.91306641 2.92503906 9.91306641 3 11 C3.99 11.33 4.98 11.66 6 12 C6 12.99 6 13.98 6 15 C4.35 14.67 2.7 14.34 1 14 C-0.512545 8.83955235 -1.33500455 5.34001821 0 0 Z " fill="#3789D9" transform="translate(766,313)"/>
<path d="M0 0 C2.60649468 2.60649468 3.44024981 5.53134321 4.625 8.9375 C4.85445312 9.57107422 5.08390625 10.20464844 5.3203125 10.85742188 C6.32801716 13.70958596 7 15.95183307 7 19 C6.34 19 5.68 19 5 19 C4.15399724 16.9635505 3.3237175 14.92056513 2.5 12.875 C1.80390625 11.16957031 1.80390625 11.16957031 1.09375 9.4296875 C0.01684959 6.0528355 -0.21360807 3.51385272 0 0 Z " fill="#837EEA" transform="translate(933,489)"/>
<path d="M0 0 C0.66 0 1.32 0 2 0 C3.7265625 2.484375 3.7265625 2.484375 5.625 5.75 C6.25664063 6.81734375 6.88828125 7.8846875 7.5390625 8.984375 C9 12 9 12 9 16 C7.68 15.67 6.36 15.34 5 15 C5.66 15 6.32 15 7 15 C6.67 13.35 6.34 11.7 6 10 C5.01 9.67 4.02 9.34 3 9 C1.11420063 5.78715662 0 3.75366417 0 0 Z " fill="#AE84F3" transform="translate(1067,600)"/>
<path d="M0 0 C-0.25566879 3.45152861 -1.26197074 4.24488569 -3.875 6.6875 C-7 9 -7 9 -10 10 C-9.43867066 6.4628562 -8.30442253 5.00738321 -5.5625 2.75 C-4.94503906 2.22921875 -4.32757812 1.7084375 -3.69140625 1.171875 C-2 0 -2 0 0 0 Z " fill="#4AA8F2" transform="translate(612,351)"/>
<path d="M0 0 C0.66 0 1.32 0 2 0 C1.125 7.75 1.125 7.75 0 10 C-1.65 10 -3.3 10 -5 10 C-4.38479725 6.00118212 -2.39731331 3.19641774 0 0 Z " fill="#529FF4" transform="translate(823,488)"/>
<path d="M0 0 C0 0.99 0 1.98 0 3 C-3.9813783 4.3271261 -7.85045227 4.06915913 -12 4 C-12 3.01 -12 2.02 -12 1 C-7.915021 0.45533613 -4.1274515 0 0 0 Z " fill="#5F85B5" transform="translate(647,374)"/>
<path d="M0 0 C1.65322266 0.01740234 1.65322266 0.01740234 3.33984375 0.03515625 C4.99693359 0.04869141 4.99693359 0.04869141 6.6875 0.0625 C7.54214844 0.07410156 8.39679687 0.08570313 9.27734375 0.09765625 C8.94734375 1.08765625 8.61734375 2.07765625 8.27734375 3.09765625 C6.65270533 3.15161103 5.02755834 3.1904282 3.40234375 3.22265625 C2.49742187 3.24585938 1.5925 3.2690625 0.66015625 3.29296875 C-1.72265625 3.09765625 -1.72265625 3.09765625 -3.72265625 1.09765625 C-2.72265625 0.09765625 -2.72265625 0.09765625 0 0 Z " fill="#2B8FE6" transform="translate(697.72265625,572.90234375)"/>
<path d="M0 0 C3.64083526 4.18021827 6.88869424 8.85188457 9 14 C8.67 14.99 8.34 15.98 8 17 C7.34 15.02 6.68 13.04 6 11 C5.34 11 4.68 11 4 11 C4 10.01 4 9.02 4 8 C3.34 8 2.68 8 2 8 C0.3125 5.6875 0.3125 5.6875 -1 3 C-0.67 2.01 -0.34 1.02 0 0 Z " fill="#52A3EF" transform="translate(813,357)"/>
<path d="M0 0 C1.62566606 0.47690204 3.25051311 0.95659666 4.875 1.4375 C5.77992188 1.70433594 6.68484375 1.97117187 7.6171875 2.24609375 C10 3 10 3 12 4 C12 4.66 12 5.32 12 6 C3.42857143 5.14285714 3.42857143 5.14285714 0 3 C0 2.01 0 1.02 0 0 Z " fill="#5AA6F3" transform="translate(607,533)"/>
<path d="M0 0 C1.9009762 2.8514643 2.96265899 5.29710476 4.125 8.5 C4.47820313 9.4590625 4.83140625 10.418125 5.1953125 11.40625 C6 14 6 14 6 17 C5.34 17 4.68 17 4 17 C-0.59225513 5.47835991 -0.59225513 5.47835991 0 0 Z " fill="#7C79E9" transform="translate(916,442)"/>
<path d="M0 0 C2.83338222 1.37840216 5.55688806 2.86418386 8.25 4.5 C8.95640625 4.9228125 9.6628125 5.345625 10.390625 5.78125 C10.92171875 6.1834375 11.4528125 6.585625 12 7 C12 7.66 12 8.32 12 9 C10.68 9 9.36 9 8 9 C8 8.34 8 7.68 8 7 C7.01 7 6.02 7 5 7 C5 6.34 5 5.68 5 5 C4.01 5 3.02 5 2 5 C2 4.34 2 3.68 2 3 C1.34 3 0.68 3 0 3 C0 2.01 0 1.02 0 0 Z " fill="#58A3F4" transform="translate(585,520)"/>
<path d="M0 0 C0 0.99 0 1.98 0 3 C-1.4562545 3.67119549 -2.91507867 4.33681807 -4.375 5 C-5.59316406 5.556875 -5.59316406 5.556875 -6.8359375 6.125 C-9 7 -9 7 -11 7 C-11 6.01 -11 5.02 -11 4 C-9.5437455 3.32880451 -8.08492133 2.66318193 -6.625 2 C-5.81289063 1.62875 -5.00078125 1.2575 -4.1640625 0.875 C-2 0 -2 0 0 0 Z " fill="#4CA8F5" transform="translate(650,330)"/>
<path d="M0 0 C0 1.32 0 2.64 0 4 C-2.97 4 -5.94 4 -9 4 C-9 3.01 -9 2.02 -9 1 C-5.92677456 0.08941469 -3.19902639 -0.08886184 0 0 Z " fill="#5A83B5" transform="translate(634,376)"/>
<path d="M0 0 C-1.44126786 3.36295835 -3.20592655 5.62927102 -6 8 C-6.99 8 -7.98 8 -9 8 C-8.875 6.25 -8.875 6.25 -8 4 C-2.77777778 0 -2.77777778 0 0 0 Z " fill="#4FA7FA" transform="translate(591,373)"/>
<path d="M0 0 C2.29633824 3.44450737 2.54016485 5.93812283 3 10 C0.69 10 -1.62 10 -4 10 C-4 9.34 -4 8.68 -4 8 C-2.68 8 -1.36 8 0 8 C-0.185625 7.05125 -0.37125 6.1025 -0.5625 5.125 C-1 2 -1 2 0 0 Z " fill="#51A0EE" transform="translate(555,472)"/>
<path d="M0 0 C2.52861573 2.26053899 3.83856528 4.39900064 5.1875 7.5 C5.53167969 8.2734375 5.87585937 9.046875 6.23046875 9.84375 C7 12 7 12 7 15 C6.34 15 5.68 15 5 15 C4.16260219 12.8765984 3.33019717 10.7512272 2.5 8.625 C1.80390625 6.84996094 1.80390625 6.84996094 1.09375 5.0390625 C0 2 0 2 0 0 Z " fill="#B57EF9" transform="translate(1073,375)"/>
<path d="M0 0 C-2.54782974 2.97246802 -5.45340883 4.41535288 -9 6 C-9.66 6 -10.32 6 -11 6 C-11 5.01 -11 4.02 -11 3 C-9.73581754 2.30034557 -8.46334598 1.61565237 -7.1875 0.9375 C-6.47980469 0.55464844 -5.77210938 0.17179687 -5.04296875 -0.22265625 C-3 -1 -3 -1 0 0 Z " fill="#5FA2EF" transform="translate(638,337)"/>
<path d="M0 0 C0 3 0 3 -1.64453125 4.859375 C-2.35996094 5.48328125 -3.07539062 6.1071875 -3.8125 6.75 C-4.52019531 7.38421875 -5.22789062 8.0184375 -5.95703125 8.671875 C-6.63121094 9.11015625 -7.30539062 9.5484375 -8 10 C-8.99 9.67 -9.98 9.34 -11 9 C-9.54782324 7.49403892 -8.08807139 5.99537896 -6.625 4.5 C-5.40683594 3.24703125 -5.40683594 3.24703125 -4.1640625 1.96875 C-2 0 -2 0 0 0 Z " fill="#4F9DE5" transform="translate(668,570)"/>
<path d="M0 0 C0 0.99 0 1.98 0 3 C-3.82989106 4.80230168 -6.78121808 5.19622241 -11 5 C-11 4.34 -11 3.68 -11 3 C-9.54293274 2.49632243 -8.08429904 1.99717444 -6.625 1.5 C-5.81289063 1.2215625 -5.00078125 0.943125 -4.1640625 0.65625 C-2 0 -2 0 0 0 Z " fill="#57A6F3" transform="translate(760,535)"/>
<path d="M0 0 C0.33 0.66 0.66 1.32 1 2 C-0.07192184 3.3218362 -1.15802695 4.63217927 -2.25 5.9375 C-2.85328125 6.66839844 -3.4565625 7.39929688 -4.078125 8.15234375 C-6.10741134 10.10326334 -7.254407 10.61731779 -10 11 C-6.79239749 7.19364503 -3.59253891 3.45436433 0 0 Z " fill="#4E9DF5" transform="translate(816,498)"/>
<path d="M0 0 C2 1 2 1 2.8515625 2.9609375 C3.10679687 3.75757813 3.36203125 4.55421875 3.625 5.375 C3.88539063 6.16648437 4.14578125 6.95796875 4.4140625 7.7734375 C5 10 5 10 5 13 C4.34 13 3.68 13 3 13 C-0.42857143 4.57142857 -0.42857143 4.57142857 0 0 Z " fill="#8983EE" transform="translate(928,476)"/>
<path d="M0 0 C2.97 0 5.94 0 9 0 C9 0.99 9 1.98 9 3 C6.03 3 3.06 3 0 3 C0 2.01 0 1.02 0 0 Z " fill="#55AAF5" transform="translate(708,572)"/>
<path d="M0 0 C4.455 0.99 4.455 0.99 9 2 C9 2.99 9 3.98 9 5 C4.545 4.01 4.545 4.01 0 3 C0 2.01 0 1.02 0 0 Z " fill="#54A6F3" transform="translate(620,538)"/>
<path d="M0 0 C0 0.99 0 1.98 0 3 C-2.97 3.66 -5.94 4.32 -9 5 C-9 4.01 -9 3.02 -9 2 C-3.375 0 -3.375 0 0 0 Z " fill="#5C84B1" transform="translate(620,379)"/>
<path d="M0 0 C2.97 0.99 5.94 1.98 9 3 C9 3.99 9 4.98 9 6 C5.65626525 5.44271087 2.96687001 4.64826111 0 3 C0 2.01 0 1.02 0 0 Z " fill="#A67CFB" transform="translate(1029,337)"/>
<path d="M0 0 C0.66 0 1.32 0 2 0 C2 0.66 2 1.32 2 2 C4.31 2 6.62 2 9 2 C8.67 2.66 8.34 3.32 8 4 C5.35139573 4.59355614 2.70802678 4.74209269 0 5 C-0.5625 3.0625 -0.5625 3.0625 -1 1 C-0.67 0.67 -0.34 0.34 0 0 Z " fill="#6E77F5" transform="translate(895,330)"/>
<path d="M0 0 C2.31 0.33 4.62 0.66 7 1 C7 1.99 7 2.98 7 4 C5.02 4.33 3.04 4.66 1 5 C0.67 3.35 0.34 1.7 0 0 Z " fill="#479CF0" transform="translate(635,542)"/>
<path d="M0 0 C0.66 0.66 1.32 1.32 2 2 C1.625 5.125 1.625 5.125 1 8 C0.34 8 -0.32 8 -1 8 C-1.66 9.65 -2.32 11.3 -3 13 C-3.99 12.67 -4.98 12.34 -6 12 C-5.38125 11.319375 -4.7625 10.63875 -4.125 9.9375 C-1.6680932 6.54118766 -0.95054395 4.03981179 0 0 Z " fill="#6985AF" transform="translate(634,438)"/>
<path d="M0 0 C0.33 0 0.66 0 1 0 C0.88512252 1.58409994 0.75765492 3.16728963 0.625 4.75 C0.52058594 6.07257813 0.52058594 6.07257813 0.4140625 7.421875 C0.00149945 9.99066382 -0.71160957 11.75841015 -2 14 C-2.33 14 -2.66 14 -3 14 C-2.48594831 9.03083364 -1.76615118 4.70973649 0 0 Z " fill="#6084AF" transform="translate(574,417)"/>
<path d="M0 0 C2.95012857 1.36970255 5.5652222 2.82609125 8 5 C8 5.99 8 6.98 8 8 C5.04987143 6.63029745 2.4347778 5.17390875 0 3 C0 2.01 0 1.02 0 0 Z " fill="#4394EE" transform="translate(791,336)"/>
<path d="M0 0 C2.64 0 5.28 0 8 0 C8 0.99 8 1.98 8 3 C5.03 3 2.06 3 -1 3 C-0.67 2.01 -0.34 1.02 0 0 Z " fill="#9887FC" transform="translate(1001,331)"/>
<path d="M0 0 C0.66 0.99 1.32 1.98 2 3 C-0.64 5.31 -3.28 7.62 -6 10 C-6.33 9.01 -6.66 8.02 -7 7 C-4.69 4.69 -2.38 2.38 0 0 Z " fill="#278AE8" transform="translate(515,583)"/>
<path d="M0 0 C3.36295835 1.44126786 5.62927102 3.20592655 8 6 C8 6.99 8 7.98 8 9 C7.34 9 6.68 9 6 9 C4.64613064 7.34997172 3.31321858 5.6825613 2 4 C1.34 3.67 0.68 3.34 0 3 C0 2.01 0 1.02 0 0 Z " fill="#75AAEC" transform="translate(801,344)"/>
<path d="M0 0 C1.65322266 0.01740234 1.65322266 0.01740234 3.33984375 0.03515625 C4.99693359 0.04869141 4.99693359 0.04869141 6.6875 0.0625 C7.54214844 0.07410156 8.39679687 0.08570313 9.27734375 0.09765625 C9.27734375 0.42765625 9.27734375 0.75765625 9.27734375 1.09765625 C8.6740625 1.13503906 8.07078125 1.17242188 7.44921875 1.2109375 C2.83001485 1.59090427 -0.19199726 1.84944998 -3.72265625 5.09765625 C-4.38265625 5.09765625 -5.04265625 5.09765625 -5.72265625 5.09765625 C-3.31355678 0.11885067 -3.31355678 0.11885067 0 0 Z " fill="#68AEF4" transform="translate(799.72265625,539.90234375)"/>
<path d="M0 0 C1.65 0.33 3.3 0.66 5 1 C4.01 1.495 4.01 1.495 3 2 C2.34786708 4.02463255 2.34786708 4.02463255 2 6 C0.35 6.33 -1.3 6.66 -3 7 C-2.01 4.69 -1.02 2.38 0 0 Z " fill="#2984EF" transform="translate(817,497)"/>
<path d="M0 0 C0.33 0 0.66 0 1 0 C1.33 3.96 1.66 7.92 2 12 C1.34 12 0.68 12 0 12 C-0.19477739 10.37585622 -0.38059458 8.75063577 -0.5625 7.125 C-0.66691406 6.22007812 -0.77132813 5.31515625 -0.87890625 4.3828125 C-1 2 -1 2 0 0 Z " fill="#A374F2" transform="translate(1083,400)"/>
<path d="M0 0 C0 0.99 0 1.98 0 3 C-2.64 3.66 -5.28 4.32 -8 5 C-8 4.01 -8 3.02 -8 2 C-5.09399739 0.74335022 -3.20395416 0 0 0 Z " fill="#64A7F0" transform="translate(561,393)"/>
<path d="M0 0 C0.33 0.99 0.66 1.98 1 3 C-1.15343189 6.23014784 -2.27059611 7.75686537 -6 9 C-5.52797514 4.75177626 -3.03344482 2.80010291 0 0 Z " fill="#609CF1" transform="translate(522,576)"/>
<path d="M0 0 C-3.1254959 2.64465038 -6.08788267 3.84414715 -10 5 C-10 4.01 -10 3.02 -10 2 C-6.5980513 -0.09350689 -3.94727588 -0.17942163 0 0 Z " fill="#3C94EC" transform="translate(780,556)"/>
<path d="M0 0 C0.598125 0.78375 1.19625 1.5675 1.8125 2.375 C3.91085249 5.14574323 3.91085249 5.14574323 7 7 C7 7.99 7 8.98 7 10 C5.0625 9.1875 5.0625 9.1875 3 8 C2.67 7.01 2.34 6.02 2 5 C1.34 5 0.68 5 0 5 C0 3.35 0 1.7 0 0 Z " fill="#6A90B2" transform="translate(613,444)"/>
<path d="M0 0 C2.31 0 4.62 0 7 0 C7 0.99 7 1.98 7 3 C4.36 3 1.72 3 -1 3 C-0.67 2.01 -0.34 1.02 0 0 Z " fill="#40BEF3" transform="translate(698,317)"/>
<path d="M0 0 C-0.125 1.8125 -0.125 1.8125 -1 4 C-4.0625 5.75 -4.0625 5.75 -7 7 C-6.61402985 4.20171644 -6.19863427 3.1794116 -4.0625 1.25 C-2 0 -2 0 0 0 Z " fill="#68A7F0" transform="translate(821,393)"/>
<path d="M0 0 C-4.95 2.97 -4.95 2.97 -10 6 C-8 1 -8 1 -5.5625 -0.375 C-3 -1 -3 -1 0 0 Z " fill="#3E97ED" transform="translate(606,365)"/>
<path d="M0 0 C0.33 1.32 0.66 2.64 1 4 C-1.3125 6.0625 -1.3125 6.0625 -4 8 C-4.99 7.67 -5.98 7.34 -7 7 C-4.69 4.69 -2.38 2.38 0 0 Z " fill="#78C3F6" transform="translate(601,358)"/>
<path d="M0 0 C2.31 0 4.62 0 7 0 C7 0.99 7 1.98 7 3 C4.69 3 2.38 3 0 3 C0 2.01 0 1.02 0 0 Z " fill="#69B3F5" transform="translate(680,572)"/>
<path d="M0 0 C0 0.99 0 1.98 0 3 C-2.31 3.66 -4.62 4.32 -7 5 C-7 4.01 -7 3.02 -7 2 C-2.25 0 -2.25 0 0 0 Z " fill="#60A7EE" transform="translate(762,562)"/>
<path d="M0 0 C2.31 0 4.62 0 7 0 C7 0.99 7 1.98 7 3 C4.69 3 2.38 3 0 3 C0 2.01 0 1.02 0 0 Z " fill="#5EA8F1" transform="translate(657,546)"/>
<path d="M0 0 C2.31 0 4.62 0 7 0 C7 0.99 7 1.98 7 3 C4.69 3 2.38 3 0 3 C0 2.01 0 1.02 0 0 Z " fill="#4CA5F5" transform="translate(704,546)"/>
<path d="M0 0 C0 0.99 0 1.98 0 3 C-2.31 3.33 -4.62 3.66 -7 4 C-7 3.01 -7 2.02 -7 1 C-4.50935112 0.31292445 -2.62113708 0 0 0 Z " fill="#53A4F4" transform="translate(735,542)"/>
<path d="M0 0 C0.33 0.66 0.66 1.32 1 2 C-0.97420135 4.52259061 -1.96745642 4.9929808 -5.1875 5.6875 C-6.5796875 5.8421875 -6.5796875 5.8421875 -8 6 C-8 5.34 -8 4.68 -8 4 C-5.36 2.68 -2.72 1.36 0 0 Z " fill="#64AEF7" transform="translate(779,526)"/>
<path d="M0 0 C0.99 0.495 0.99 0.495 2 1 C2.6328125 3.06640625 2.6328125 3.06640625 3.125 5.5625 C3.29257812 6.38878906 3.46015625 7.21507812 3.6328125 8.06640625 C3.75398437 8.70449219 3.87515625 9.34257813 4 10 C3.34 10 2.68 10 2 10 C0.39644899 6.49223216 -0.22036864 3.85645121 0 0 Z " fill="#857EEA" transform="translate(946,525)"/>
<path d="M0 0 C0.99 0.66 1.98 1.32 3 2 C2.01 2 1.02 2 0 2 C0 2.66 0 3.32 0 4 C-1.98 4.66 -3.96 5.32 -6 6 C-4.95125002 3.37812506 -4.35068687 2.20628639 -1.875 0.75 C-1.25625 0.5025 -0.6375 0.255 0 0 Z " fill="#3D9AED" transform="translate(785,523)"/>
<path d="M0 0 C2.44839588 3.67259383 4 6.54648201 4 11 C3.34 11 2.68 11 2 11 C0.19769832 7.17010894 -0.19622241 4.21878192 0 0 Z " fill="#7D7AE1" transform="translate(906,415)"/>
<path d="M0 0 C2.44839588 3.67259383 4 6.54648201 4 11 C3.34 11 2.68 11 2 11 C0.19769832 7.17010894 -0.19622241 4.21878192 0 0 Z " fill="#8D82E6" transform="translate(889,369)"/>
<path d="M0 0 C2.31 0 4.62 0 7 0 C7 0.99 7 1.98 7 3 C5.02 3 3.04 3 1 3 C0.67 2.01 0.34 1.02 0 0 Z " fill="#215795" transform="translate(694,373)"/>
<path d="M0 0 C0 0.99 0 1.98 0 3 C-2.31 3.66 -4.62 4.32 -7 5 C-7 4.01 -7 3.02 -7 2 C-2.25 0 -2.25 0 0 0 Z " fill="#36AEF4" transform="translate(658,327)"/>
<path d="M0 0 C0.66 0 1.32 0 2 0 C1.60196439 2.88575819 1.20990931 3.82189513 -1.0625 5.75 C-1.701875 6.1625 -2.34125 6.575 -3 7 C-2.25 2.25 -2.25 2.25 0 0 Z " fill="#3E95EC" transform="translate(610,351)"/>
<path d="M0 0 C0.94875 0.04125 1.8975 0.0825 2.875 0.125 C-0.125 2.125 -0.125 2.125 -2.25 3.125 C-4.29544538 3.98360158 -4.29544538 3.98360158 -5.125 6.125 C-5.785 6.125 -6.445 6.125 -7.125 6.125 C-4.34782609 0.17391304 -4.34782609 0.17391304 0 0 Z " fill="#67A9F2" transform="translate(765.125,239.875)"/>
<path d="M0 0 C1.98 0 3.96 0 6 0 C6 0.99 6 1.98 6 3 C4.02 3 2.04 3 0 3 C0 2.01 0 1.02 0 0 Z " fill="#5DABF6" transform="translate(723,571)"/>
<path d="M0 0 C0 0.99 0 1.98 0 3 C-1.98 3.33 -3.96 3.66 -6 4 C-6 3.01 -6 2.02 -6 1 C-3 0 -3 0 0 0 Z " fill="#559EEE" transform="translate(747,567)"/>
<path d="M0 0 C2.31 0 4.62 0 7 0 C7 1.32 7 2.64 7 4 C6.34 4 5.68 4 5 4 C5 3.34 5 2.68 5 2 C3.35 2 1.7 2 0 2 C0 1.34 0 0.68 0 0 Z " fill="#4FA4F5" transform="translate(829,540)"/>
<path d="M0 0 C0 0.99 0 1.98 0 3 C-1.98 3.33 -3.96 3.66 -6 4 C-6 3.01 -6 2.02 -6 1 C-3.92446352 0.4465236 -2.15634036 0 0 0 Z " fill="#62B0F5" transform="translate(747,539)"/>
<path d="M0 0 C2.0625 0.4375 2.0625 0.4375 4 1 C3.67 2.32 3.34 3.64 3 5 C1.35 5 -0.3 5 -2 5 C-1.125 1.125 -1.125 1.125 0 0 Z " fill="#5FA2F2" transform="translate(820,493)"/>
<path d="M0 0 C0 0.99 0 1.98 0 3 C-1.98 3.66 -3.96 4.32 -6 5 C-6 4.01 -6 3.02 -6 2 C-2.25 0 -2.25 0 0 0 Z " fill="#978CF2" transform="translate(998,465)"/>
<path d="M0 0 C2 4 2 4 1.125 6.75 C0.75375 7.4925 0.3825 8.235 0 9 C-0.66 9 -1.32 9 -2 9 C-1.34 6.03 -0.68 3.06 0 0 Z " fill="#8C83E0" transform="translate(863,454)"/>
<path d="M0 0 C0 0.99 0 1.98 0 3 C-1.98 3.33 -3.96 3.66 -6 4 C-6 3.01 -6 2.02 -6 1 C-3.92446352 0.4465236 -2.15634036 0 0 0 Z " fill="#4F76A8" transform="translate(627,451)"/>
<path d="M0 0 C0.66 0.66 1.32 1.32 2 2 C1.75 5.5625 1.75 5.5625 1 9 C0.01 9.495 0.01 9.495 -1 10 C-0.67 6.7 -0.34 3.4 0 0 Z " fill="#8079DA" transform="translate(865,444)"/>
<path d="M0 0 C2.29633824 3.44450737 2.54016485 5.93812283 3 10 C2.34 10 1.68 10 1 10 C-0.1577506 6.52674819 -0.06866652 3.63932552 0 0 Z " fill="#A478F4" transform="translate(1080,390)"/>
<path d="M0 0 C1.98 1.65 3.96 3.3 6 5 C5.67 5.99 5.34 6.98 5 8 C2.5 5.6875 2.5 5.6875 0 3 C0 2.01 0 1.02 0 0 Z " fill="#7A99B7" transform="translate(757,389)"/>
<path d="M0 0 C1.98 0.66 3.96 1.32 6 2 C6 2.99 6 3.98 6 5 C4.02 4.34 2.04 3.68 0 3 C0 2.01 0 1.02 0 0 Z " fill="#577DAA" transform="translate(741,380)"/>
<path d="M0 0 C1.98 0 3.96 0 6 0 C6 0.99 6 1.98 6 3 C4.02 3 2.04 3 0 3 C0 2.01 0 1.02 0 0 Z " fill="#7A96BF" transform="translate(701,373)"/>
<path d="M0 0 C1.98 0 3.96 0 6 0 C6 0.99 6 1.98 6 3 C4.02 3 2.04 3 0 3 C0 2.01 0 1.02 0 0 Z " fill="#7B9DBD" transform="translate(653,373)"/>
<path d="M0 0 C2.97 0.495 2.97 0.495 6 1 C6 1.99 6 2.98 6 4 C3.03 3.505 3.03 3.505 0 3 C0 2.01 0 1.02 0 0 Z " fill="#A186FA" transform="translate(1016,333)"/>
<path d="M0 0 C0.99 1.485 0.99 1.485 2 3 C2.99 3.33 3.98 3.66 5 4 C5 4.99 5 5.98 5 7 C3.35 6.67 1.7 6.34 0 6 C0 4.02 0 2.04 0 0 Z " fill="#5A9DEC" transform="translate(767,321)"/>
<path d="M0 0 C1.98 0 3.96 0 6 0 C5.67 0.99 5.34 1.98 5 3 C3.02 3 1.04 3 -1 3 C-0.67 2.01 -0.34 1.02 0 0 Z " fill="#55C1F1" transform="translate(741,303)"/>
<path d="M0 0 C0.33 0.99 0.66 1.98 1 3 C-0.28965176 4.37562854 -1.62689293 5.70766393 -3 7 C-3.66 7 -4.32 7 -5 7 C-3.70700306 4.11562221 -2.34058637 2.12780579 0 0 Z " fill="#85BAEA" transform="translate(537,561)"/>
<path d="M0 0 C0.33 0.99 0.66 1.98 1 3 C0.34 3 -0.32 3 -1 3 C-1 3.66 -1 4.32 -1 5 C-2.65 5.33 -4.3 5.66 -6 6 C-6 5.34 -6 4.68 -6 4 C-4.03852126 2.61061923 -2.03833424 1.2739589 0 0 Z " fill="#68ACF4" transform="translate(790,546)"/>
<path d="M0 0 C1.25541557 3.76624671 0.37061958 5.37188934 -1 9 C-1.66 9 -2.32 9 -3 9 C-2.44271087 5.65626525 -1.64826111 2.96687001 0 0 Z " fill="#55769A" transform="translate(770,459)"/>
<path d="M0 0 C1.98 0 3.96 0 6 0 C5.34 1.32 4.68 2.64 4 4 C2.68 3.67 1.36 3.34 0 3 C0 2.01 0 1.02 0 0 Z " fill="#3493F4" transform="translate(561,393)"/>
<path d="M0 0 C3 1 3 1 4.6875 4.0625 C5.120625 5.031875 5.55375 6.00125 6 7 C5.01 7 4.02 7 3 7 C3 6.01 3 5.02 3 4 C2.34 4 1.68 4 1 4 C0.67 2.68 0.34 1.36 0 0 Z " fill="#AE7FF5" transform="translate(1066,365)"/>
<path d="M0 0 C-0.33 1.32 -0.66 2.64 -1 4 C-2.32 4.33 -3.64 4.66 -5 5 C-5 4.01 -5 3.02 -5 2 C-2 0 -2 0 0 0 Z " fill="#4095EA" transform="translate(621,345)"/>
</svg>
